# xmcd
#
# Track frame offsets:
#	150
#	12400
#	26562
#	36155
#	48912
#	61667
#	77540
#	96922
#	109865
#	123305
#
# Disc length: 1902 seconds
#
# Revision: 0
# Processed by: cddbd v1.5.2PL0 Copyright (c) Steve Scherf et al.
# Submitted via: audiograbber 1.83.01
#
DISCID=74076c0a
DTITLE=Herb Pedersen - Southwest
DYEAR=1976
DGENRE=Country Rock
TTITLE0=Paperback Writer
TTITLE1=Rock and Roll Cajun
TTITLE2=If I Can Sing A Song
TTITLE3=Our Baby's Gone
TTITLE4=Harvest Home
TTITLE5=The Hey Boys
TTITLE6=Jesus Once Again
TTITLE7=Younger Days
TTITLE8=Can't You Hear Me Callin'
TTITLE9=Wait A Minute
EXTD=
EXTT0=
EXTT1=
EXTT2=
EXTT3=
EXTT4=
EXTT5=
EXTT6=
EXTT7=
EXTT8=
EXTT9=
PLAYORDER=
